<svg width="195" height="196" viewBox="0 0 195 196" fill="none" xmlns="http://www.w3.org/2000/svg">
<path d="M97.5078 0.182495C151.351 0.182554 195 43.8312 195 97.6747C195 151.518 151.351 195.168 97.5078 195.168C43.6642 195.168 0.015625 151.518 0.015625 97.6747C0.0157905 43.8312 43.6643 0.182495 97.5078 0.182495ZM62.792 35.2401C61.2666 35.2401 60.3138 36.8897 61.0762 38.2137L121.016 142.237C121.506 143.107 120.501 144.043 119.668 143.499L110.032 137.188C109.36 136.751 109.385 135.761 110.073 135.356L111.916 134.271L99.9883 113.601C99.6378 112.991 98.9824 112.611 98.2734 112.611H87.9131C87.2081 112.611 86.5518 112.987 86.1973 113.601L61.0518 157.137C60.285 158.457 61.2412 160.11 62.7666 160.11H132.585C134.11 160.11 135.062 158.461 134.3 157.137L74.3848 52.9237C73.8944 52.0535 74.9007 51.1168 75.7334 51.661L85.3691 57.9686C86.0408 58.406 86.0156 59.3955 85.3271 59.7997L83.373 60.951L95.375 81.745C95.7254 82.3552 96.3809 82.7341 97.0898 82.7343H107.447C108.156 82.7342 108.811 82.3547 109.166 81.7401L109.162 81.7489L134.255 38.2137C135.013 36.8897 134.06 35.2401 132.535 35.2401H62.792Z" fill="#4A5568"/>
</svg>
