<svg width="357" height="115" viewBox="0 0 357 115" fill="none" xmlns="http://www.w3.org/2000/svg">
<path d="M42.9602 41.2804C42.6484 41.819 42.0719 42.1516 41.4482 42.1516H32.34C31.7163 42.1516 31.1398 41.819 30.8316 41.284L20.2766 23.0621L21.9953 22.0536C22.6008 21.6994 22.6225 20.8319 22.0315 20.4487L13.5578 14.9218C12.8253 14.4446 11.9406 15.2652 12.3721 16.0279L65.0637 107.351C65.7345 108.511 64.8969 109.957 63.5554 109.957H2.15432C0.812738 109.957 -0.0284841 108.507 0.645934 107.351L22.7603 69.2006C23.0721 68.662 23.6487 68.3331 24.2687 68.3331H33.3806C34.0042 68.3331 34.5808 68.6656 34.889 69.2006L45.3787 87.3141L43.7579 88.2647C43.1524 88.619 43.1306 89.4865 43.7217 89.8697L52.1954 95.4002C52.9278 95.8774 53.8125 95.0568 53.3811 94.2941L0.667688 3.13772C-0.00310364 1.97739 0.834492 0.531494 2.17608 0.531494H63.5119C64.8534 0.531494 65.691 1.97739 65.0238 3.13772L42.9566 41.2876L42.9602 41.2804Z" fill="#4A5568"/>
<path d="M181.633 110.161L184.027 96.6764H179.815L179.874 96.3208H188.693L188.633 96.6764H184.422L182.028 110.161H181.633Z" fill="#4A5568"/>
<path d="M191.261 110.398C190.352 110.398 189.608 110.181 189.025 109.746C188.445 109.311 188.057 108.692 187.859 107.889C187.662 107.085 187.648 106.157 187.82 105.1C187.978 104.27 188.218 103.539 188.541 102.903C188.864 102.271 189.262 101.738 189.736 101.303C190.21 100.868 190.737 100.536 191.317 100.305C191.896 100.075 192.509 99.9595 193.154 99.9595C194.129 99.9595 194.893 100.174 195.449 100.602C196.002 101.03 196.371 101.593 196.556 102.291C196.74 102.989 196.753 103.753 196.595 104.586C196.582 104.705 196.562 104.81 196.536 104.902C196.51 104.994 196.483 105.106 196.457 105.238H188.034L188.093 104.882H196.161C196.345 103.855 196.332 103.005 196.121 102.33C195.91 101.659 195.545 101.161 195.025 100.839C194.504 100.516 193.856 100.355 193.075 100.355C192.39 100.355 191.722 100.513 191.07 100.829C190.418 101.145 189.842 101.645 189.341 102.33C188.84 103.015 188.491 103.898 188.294 104.981L188.254 105.179C188.044 106.285 188.053 107.201 188.284 107.918C188.514 108.636 188.9 109.163 189.44 109.499C189.98 109.835 190.605 110.003 191.317 110.003C192.239 110.003 193.039 109.779 193.721 109.331C194.399 108.883 194.955 108.251 195.39 107.434H195.825C195.535 108.014 195.179 108.528 194.758 108.975C194.336 109.423 193.836 109.772 193.256 110.022C192.677 110.273 192.012 110.398 191.261 110.398Z" fill="#4A5568"/>
<path d="M198.558 110.161L200.297 100.197H200.613L200.316 102.512C200.817 101.655 201.393 101.017 202.045 100.595C202.697 100.174 203.431 99.9629 204.248 99.9629C204.63 99.9629 205.012 100.035 205.394 100.18C205.776 100.325 206.099 100.592 206.362 100.98C206.625 101.369 206.77 101.925 206.797 102.65C207.1 101.899 207.574 101.264 208.219 100.743C208.865 100.223 209.655 99.9629 210.593 99.9629C211.318 99.9629 211.914 100.108 212.381 100.398C212.849 100.687 213.172 101.138 213.349 101.751C213.527 102.363 213.517 103.19 213.32 104.234L212.273 110.164H211.897L212.944 104.194C213.168 102.851 213.079 101.876 212.678 101.267C212.276 100.661 211.555 100.358 210.514 100.358C209.948 100.358 209.398 100.496 208.865 100.773C208.331 101.05 207.87 101.461 207.482 102.008C207.093 102.554 206.826 103.243 206.681 104.072L205.615 110.161H205.2L206.266 104.092C206.504 102.801 206.434 101.856 206.059 101.254C205.684 100.654 205.061 100.355 204.192 100.355C203.481 100.355 202.829 100.529 202.236 100.878C201.643 101.227 201.143 101.738 200.734 102.409C200.326 103.081 200.043 103.924 199.885 104.942L198.956 110.161H198.561H198.558Z" fill="#4A5568"/>
<path d="M214.93 114.511L217.443 100.197H217.779L217.304 103.361C217.594 102.742 217.986 102.176 218.48 101.662C218.974 101.148 219.54 100.737 220.179 100.427C220.818 100.118 221.493 99.9629 222.204 99.9629C223.179 99.9629 223.972 100.187 224.588 100.635C225.201 101.082 225.622 101.702 225.853 102.492C226.083 103.282 226.106 104.171 225.922 105.162C225.803 105.926 225.579 106.624 225.25 107.26C224.921 107.892 224.519 108.445 224.045 108.92C223.571 109.394 223.024 109.759 222.405 110.016C221.786 110.273 221.101 110.401 220.35 110.401C219.652 110.401 219.04 110.26 218.513 109.977C217.986 109.693 217.564 109.292 217.248 108.771C216.932 108.251 216.741 107.635 216.675 106.924L215.332 114.517H214.937L214.93 114.511ZM220.446 110.003C221.262 110.003 222.02 109.809 222.721 109.42C223.419 109.031 224.012 108.478 224.499 107.76C224.987 107.043 225.316 106.183 225.487 105.179C225.658 104.204 225.629 103.355 225.398 102.627C225.168 101.902 224.779 101.343 224.233 100.947C223.686 100.552 223.011 100.355 222.207 100.355C221.404 100.355 220.627 100.569 219.912 100.997C219.198 101.425 218.598 102.001 218.105 102.726C217.611 103.45 217.285 104.267 217.127 105.179C216.968 106.114 217.001 106.947 217.225 107.672C217.449 108.396 217.838 108.966 218.391 109.381C218.944 109.795 219.629 110.003 220.446 110.003Z" fill="#4A5568"/>
<path d="M231.52 110.398C230.835 110.398 230.242 110.263 229.741 109.993C229.241 109.723 228.882 109.295 228.665 108.709C228.447 108.123 228.431 107.349 228.615 106.384L229.702 100.197H230.097L229.01 106.288C228.786 107.553 228.902 108.491 229.356 109.097C229.811 109.703 230.565 110.006 231.622 110.006C232.333 110.006 232.982 109.838 233.568 109.502C234.154 109.166 234.654 108.673 235.069 108.021C235.484 107.369 235.764 106.568 235.909 105.617L236.877 100.2H237.272L235.534 110.164H235.217L235.474 107.928C234.961 108.811 234.358 109.443 233.667 109.825C232.975 110.207 232.26 110.398 231.52 110.398Z" fill="#4A5568"/>
<path d="M242.353 110.398C241.681 110.398 241.089 110.286 240.575 110.062C240.061 109.838 239.673 109.489 239.409 109.015C239.146 108.541 239.047 107.922 239.113 107.158H239.528C239.449 107.816 239.541 108.356 239.805 108.778C240.068 109.199 240.437 109.509 240.911 109.706C241.385 109.904 241.892 110.003 242.432 110.003C242.972 110.003 243.516 109.901 243.983 109.697C244.451 109.492 244.833 109.216 245.129 108.867C245.425 108.518 245.62 108.113 245.712 107.652C245.804 107.098 245.775 106.677 245.623 106.387C245.472 106.097 245.192 105.87 244.783 105.706C244.375 105.541 243.835 105.386 243.163 105.241C242.636 105.136 242.192 105.001 241.83 104.836C241.467 104.672 241.178 104.484 240.96 104.273C240.743 104.062 240.598 103.815 240.526 103.532C240.453 103.249 240.45 102.916 240.516 102.535C240.608 102.034 240.812 101.589 241.128 101.201C241.444 100.812 241.849 100.509 242.343 100.292C242.837 100.075 243.4 99.9661 244.033 99.9661C244.902 99.9661 245.593 100.21 246.11 100.697C246.624 101.184 246.848 101.922 246.782 102.91H246.347C246.44 102.146 246.285 101.53 245.883 101.063C245.481 100.595 244.839 100.361 243.957 100.361C243.074 100.361 242.409 100.565 241.882 100.974C241.355 101.382 241.046 101.909 240.954 102.554C240.888 102.897 240.898 103.206 240.983 103.483C241.069 103.759 241.283 104.01 241.625 104.234C241.968 104.458 242.482 104.655 243.167 104.826C243.641 104.932 244.079 105.044 244.48 105.162C244.882 105.281 245.225 105.436 245.508 105.627C245.791 105.818 245.992 106.068 246.11 106.377C246.229 106.687 246.249 107.092 246.17 107.592C246.077 108.132 245.86 108.613 245.518 109.035C245.175 109.456 244.734 109.789 244.194 110.032C243.654 110.276 243.041 110.398 242.356 110.398H242.353Z" fill="#4A5568"/>
<path d="M257.421 110.398C256.75 110.398 256.157 110.286 255.643 110.062C255.129 109.838 254.741 109.489 254.477 109.015C254.214 108.541 254.115 107.922 254.181 107.158H254.596C254.517 107.816 254.609 108.356 254.873 108.778C255.136 109.199 255.505 109.509 255.979 109.706C256.453 109.904 256.96 110.003 257.5 110.003C258.04 110.003 258.584 109.901 259.051 109.697C259.519 109.492 259.901 109.216 260.197 108.867C260.494 108.518 260.688 108.113 260.78 107.652C260.872 107.098 260.843 106.677 260.691 106.387C260.54 106.097 260.26 105.87 259.851 105.706C259.443 105.541 258.903 105.386 258.231 105.241C257.705 105.136 257.26 105.001 256.898 104.836C256.536 104.672 256.246 104.484 256.028 104.273C255.811 104.062 255.666 103.815 255.594 103.532C255.521 103.249 255.518 102.916 255.584 102.535C255.676 102.034 255.88 101.589 256.196 101.201C256.512 100.812 256.918 100.509 257.411 100.292C257.905 100.075 258.468 99.9661 259.101 99.9661C259.97 99.9661 260.662 100.21 261.178 100.697C261.692 101.184 261.916 101.922 261.85 102.91H261.416C261.508 102.146 261.353 101.53 260.951 101.063C260.55 100.595 259.907 100.361 259.025 100.361C258.142 100.361 257.477 100.565 256.95 100.974C256.424 101.382 256.114 101.909 256.022 102.554C255.956 102.897 255.966 103.206 256.051 103.483C256.137 103.759 256.351 104.01 256.694 104.234C257.036 104.458 257.55 104.655 258.235 104.826C258.709 104.932 259.147 105.044 259.549 105.162C259.95 105.281 260.293 105.436 260.576 105.627C260.859 105.818 261.06 106.068 261.178 106.377C261.297 106.687 261.317 107.092 261.238 107.592C261.146 108.132 260.928 108.613 260.586 109.035C260.243 109.456 259.802 109.789 259.262 110.032C258.722 110.276 258.11 110.398 257.425 110.398H257.421Z" fill="#4A5568"/>
<path d="M267.386 110.398C266.701 110.398 266.108 110.263 265.607 109.993C265.107 109.723 264.748 109.295 264.531 108.709C264.313 108.123 264.297 107.349 264.481 106.384L265.568 100.197H265.963L264.876 106.288C264.652 107.553 264.768 108.491 265.222 109.097C265.677 109.703 266.431 110.006 267.488 110.006C268.199 110.006 268.848 109.838 269.434 109.502C270.02 109.166 270.52 108.673 270.935 108.021C271.35 107.369 271.63 106.568 271.775 105.617L272.743 100.2H273.138L271.4 110.164H271.083L271.34 107.928C270.827 108.811 270.224 109.443 269.532 109.825C268.841 110.207 268.126 110.398 267.386 110.398Z" fill="#4A5568"/>
<path d="M279.645 110.398C278.973 110.398 278.374 110.256 277.847 109.973C277.32 109.69 276.896 109.301 276.573 108.807C276.25 108.314 276.049 107.757 275.97 107.138L275.299 110.164H274.982L277.495 96.0476H277.89L276.586 103.443C277.06 102.39 277.732 101.547 278.601 100.911C279.471 100.276 280.439 99.9628 281.509 99.9628C282.484 99.9628 283.274 100.19 283.883 100.644C284.489 101.099 284.907 101.721 285.138 102.512C285.368 103.302 285.398 104.197 285.227 105.202C285.095 105.939 284.868 106.631 284.545 107.276C284.222 107.922 283.821 108.478 283.34 108.946C282.859 109.413 282.309 109.772 281.69 110.023C281.071 110.273 280.393 110.398 279.652 110.398H279.645ZM279.724 110.003C280.541 110.003 281.301 109.805 282.009 109.41C282.714 109.015 283.307 108.458 283.788 107.741C284.268 107.023 284.601 106.17 284.785 105.179C284.957 104.191 284.927 103.335 284.696 102.607C284.466 101.883 284.071 101.326 283.511 100.938C282.951 100.549 282.27 100.355 281.466 100.355C280.663 100.355 279.892 100.565 279.191 100.987C278.489 101.408 277.897 101.978 277.403 102.696C276.909 103.414 276.583 104.24 276.425 105.179C276.267 106.101 276.3 106.924 276.523 107.652C276.747 108.376 277.136 108.949 277.689 109.371C278.242 109.792 278.921 110.003 279.727 110.003H279.724Z" fill="#4A5568"/>
<path d="M296.669 110.398C295.787 110.398 295.039 110.187 294.427 109.766C293.814 109.344 293.383 108.745 293.133 107.968C292.882 107.191 292.843 106.275 293.014 105.218C293.172 104.389 293.426 103.651 293.775 103.006C294.124 102.36 294.545 101.813 295.039 101.366C295.533 100.918 296.076 100.572 296.669 100.328C297.262 100.085 297.874 99.9629 298.507 99.9629C299.587 99.9629 300.436 100.243 301.059 100.803C301.678 101.362 302 102.057 302.027 102.887H301.592C301.552 102.11 301.253 101.494 300.693 101.04C300.133 100.585 299.392 100.358 298.47 100.358C297.772 100.358 297.077 100.536 296.386 100.891C295.694 101.247 295.082 101.781 294.548 102.492C294.015 103.203 293.656 104.105 293.472 105.202C293.314 106.071 293.297 106.805 293.422 107.408C293.547 108.007 293.775 108.498 294.104 108.88C294.433 109.262 294.819 109.545 295.26 109.73C295.701 109.914 296.159 110.006 296.633 110.006C297.265 110.006 297.855 109.904 298.404 109.7C298.951 109.496 299.435 109.209 299.857 108.84C300.278 108.472 300.588 108.017 300.785 107.477H301.22C301.009 108.017 300.693 108.511 300.272 108.959C299.85 109.407 299.336 109.759 298.73 110.016C298.125 110.273 297.44 110.401 296.672 110.401L296.669 110.398Z" fill="#4A5568"/>
<path d="M307.937 110.398C307.028 110.398 306.258 110.191 305.622 109.776C304.99 109.361 304.542 108.761 304.279 107.978C304.015 107.194 303.976 106.262 304.16 105.179C304.305 104.375 304.552 103.651 304.901 103.006C305.25 102.36 305.682 101.813 306.195 101.366C306.709 100.918 307.272 100.572 307.885 100.328C308.497 100.085 309.139 99.9629 309.811 99.9629C310.72 99.9629 311.494 100.17 312.136 100.585C312.774 101 313.232 101.599 313.509 102.383C313.785 103.167 313.825 104.099 313.627 105.182C313.482 106.012 313.232 106.746 312.877 107.388C312.521 108.027 312.086 108.57 311.573 109.018C311.059 109.466 310.492 109.809 309.873 110.046C309.254 110.283 308.609 110.401 307.937 110.401V110.398ZM307.996 110.003C308.747 110.003 309.485 109.825 310.209 109.469C310.934 109.114 311.566 108.577 312.106 107.859C312.646 107.141 313.008 106.256 313.193 105.199C313.377 104.119 313.331 103.223 313.054 102.508C312.778 101.797 312.346 101.26 311.76 100.898C311.174 100.536 310.519 100.355 309.794 100.355C309.03 100.355 308.29 100.536 307.572 100.898C306.854 101.26 306.228 101.797 305.695 102.508C305.161 103.22 304.796 104.109 304.598 105.179C304.414 106.246 304.457 107.141 304.727 107.859C304.997 108.577 305.425 109.114 306.011 109.469C306.597 109.825 307.259 110.003 308 110.003H307.996Z" fill="#4A5568"/>
<path d="M315.847 110.161L317.585 100.197H317.902L317.625 102.452C318.139 101.583 318.745 100.951 319.443 100.556C320.141 100.16 320.859 99.9629 321.596 99.9629C322.281 99.9629 322.874 100.098 323.374 100.368C323.875 100.638 324.23 101.066 324.441 101.652C324.652 102.238 324.672 103.019 324.5 103.997L323.414 110.164H323.019L324.086 104.095C324.323 102.818 324.217 101.876 323.769 101.267C323.322 100.661 322.584 100.358 321.553 100.358C320.868 100.358 320.226 100.529 319.627 100.872C319.028 101.214 318.514 101.708 318.086 102.354C317.658 102.999 317.358 103.796 317.187 104.747L316.239 110.164H315.844L315.847 110.161Z" fill="#4A5568"/>
<path d="M330.022 110.161C329.535 110.161 329.143 110.088 328.847 109.944C328.55 109.799 328.353 109.548 328.254 109.193C328.155 108.837 328.159 108.356 328.264 107.75L329.548 100.552H327.81L327.869 100.197H329.607L330.042 98.1616H330.358L330.003 100.197H333.266L333.187 100.552H329.924L328.659 107.75C328.527 108.475 328.574 108.998 328.797 109.321C329.021 109.644 329.463 109.805 330.121 109.805H331.307L331.228 110.161H330.022Z" fill="#4A5568"/>
<path d="M334.254 110.161L335.993 100.197H336.328L336.032 102.274C336.401 101.695 336.799 101.237 337.227 100.901C337.655 100.565 338.136 100.325 338.67 100.18C339.203 100.035 339.773 99.9629 340.379 99.9629L340.319 100.319H340.102C339.76 100.319 339.361 100.378 338.907 100.496C338.452 100.615 338.004 100.819 337.563 101.109C337.122 101.399 336.73 101.813 336.388 102.354C336.045 102.894 335.802 103.592 335.657 104.448L334.649 110.161H334.254Z" fill="#4A5568"/>
<path d="M344.972 110.398C344.063 110.398 343.293 110.191 342.657 109.776C342.025 109.361 341.577 108.761 341.314 107.978C341.05 107.194 341.011 106.262 341.195 105.179C341.34 104.375 341.587 103.651 341.936 103.006C342.285 102.36 342.716 101.813 343.23 101.366C343.744 100.918 344.307 100.572 344.919 100.328C345.532 100.085 346.174 99.9629 346.846 99.9629C347.755 99.9629 348.528 100.17 349.171 100.585C349.809 101 350.267 101.599 350.544 102.383C350.82 103.167 350.86 104.099 350.662 105.182C350.517 106.012 350.267 106.746 349.911 107.388C349.556 108.027 349.121 108.57 348.607 109.018C348.094 109.466 347.527 109.809 346.908 110.046C346.289 110.283 345.644 110.401 344.972 110.401V110.398ZM345.031 110.003C345.782 110.003 346.52 109.825 347.248 109.469C347.972 109.114 348.604 108.577 349.144 107.859C349.684 107.141 350.046 106.256 350.231 105.199C350.415 104.119 350.369 103.223 350.093 102.508C349.816 101.797 349.385 101.26 348.798 100.898C348.212 100.536 347.557 100.355 346.833 100.355C346.069 100.355 345.328 100.536 344.607 100.898C343.889 101.26 343.263 101.797 342.73 102.508C342.196 103.22 341.831 104.109 341.633 105.179C341.449 106.246 341.492 107.141 341.762 107.859C342.032 108.577 342.46 109.114 343.046 109.469C343.632 109.825 344.294 110.003 345.031 110.003Z" fill="#4A5568"/>
<path d="M352.882 110.161L355.394 95.9258H355.789L353.277 110.161H352.882Z" fill="#4A5568"/>
<path d="M65.3 20.2535H124.466V36.6718C124.466 37.0933 123.903 37.1921 123.742 36.8002C120.825 29.7502 112.711 27.6592 104.13 27.4748C103.412 27.4583 102.822 28.0478 102.822 28.7656V82.9927C102.822 85.7916 104.176 88.3304 106.257 89.888C106.668 90.1975 106.477 90.8363 105.964 90.8363H83.8027C83.289 90.8363 83.0981 90.1975 83.5097 89.888C85.5908 88.3304 86.9408 85.7916 86.9408 82.9927V28.7656C86.9408 28.0478 86.3514 27.4583 85.6336 27.4748C77.0424 27.6592 68.9815 29.7601 66.0245 36.8562C65.8631 37.2448 65.3 37.146 65.3 36.7245V20.2535Z" fill="#4A5568"/>
<path d="M208.787 44.8182L198.638 54.4269C198.342 54.7068 197.865 54.5256 197.799 54.1206C196.225 44.433 188.233 46.3527 184.081 55.6847C184.051 55.7539 184.031 55.8329 184.031 55.9087V82.9926C184.031 85.8146 185.408 88.3764 187.518 89.9274C187.917 90.2204 187.732 90.8329 187.239 90.8329H165.934C165.44 90.8329 165.255 90.2204 165.654 89.9274C167.764 88.3731 169.141 85.8146 169.141 82.9926V50.9298C169.141 48.0255 167.764 45.7765 165.647 44.6108C165.226 44.377 165.305 43.7645 165.782 43.6789L187.09 39.8757C187.591 39.7867 187.881 40.3959 187.505 40.7417C185.401 42.6878 184.031 45.4373 184.031 48.2527V53.1163C186.017 45.9675 192.171 39.5167 198.326 39.5167C202.33 39.5167 206.15 41.0743 208.82 44.0971C209.004 44.3046 208.985 44.6306 208.784 44.8215L208.787 44.8182Z" fill="#4A5568"/>
<path d="M261.41 90.8329H242.427C241.581 90.8329 241.202 89.8187 241.811 89.2325C243.448 87.6651 244.472 85.426 244.472 82.9926V55.0986C244.472 46.5536 233.394 43.9358 228.258 51.6674C228.152 51.8288 228.093 52.0264 228.093 52.2173V82.9926C228.093 85.426 229.117 87.6684 230.754 89.2325C231.366 89.8187 230.987 90.8329 230.138 90.8329H211.154C210.308 90.8329 209.929 89.8187 210.539 89.2325C212.175 87.6651 213.199 85.426 213.199 82.9926V50.9298C213.199 48.4174 212.169 46.3955 210.522 45.141C209.87 44.6437 210.087 43.6328 210.891 43.4912L229.858 40.1061C230.731 39.9514 231.277 40.9689 230.694 41.6373C229.091 43.4879 228.09 45.8456 228.09 48.2527V49.6423C232.16 43.0895 238.811 39.5167 244.867 39.5167C252.608 39.5167 259.359 44.8775 259.359 56.3927V82.9958C259.359 85.4293 260.383 87.6717 262.019 89.2358C262.632 89.822 262.253 90.8362 261.404 90.8362L261.41 90.8329Z" fill="#4A5568"/>
<path d="M314.301 88.7584C311.93 90.4476 308.798 90.9877 305.331 90.7967C300.444 90.53 296.595 86.4995 296.595 81.6063C296.595 81.3659 296.292 81.2836 296.16 81.4844C292.061 87.5993 285.663 90.8329 279.821 90.8329C272.175 90.8329 265.329 85.4721 265.329 73.9569V49.9321C265.329 47.1661 264.009 44.9632 261.964 43.781C261.503 43.5143 261.592 42.8425 262.115 42.7503L271.424 41.0842C276.008 40.2642 280.216 43.7876 280.216 48.4437V75.2477C280.216 79.9994 283.641 82.9168 287.563 83.2428C292.515 83.6544 296.598 79.3803 296.598 74.4081V49.9321C296.598 47.5118 295.584 45.5229 293.964 44.2717C293.299 43.758 293.516 42.7273 294.343 42.5791L311.199 39.5596C311.35 39.5332 311.489 39.6485 311.489 39.7999V80.0092C311.489 83.9804 312.351 86.5818 314.073 87.0231C314.824 87.214 314.94 88.304 314.307 88.7551L314.301 88.7584Z" fill="#4A5568"/>
<path d="M161.396 88.7353C159.025 90.4246 155.894 90.9646 152.426 90.7736C147.54 90.5069 143.69 86.4764 143.69 81.5832C143.69 81.3428 143.387 81.2605 143.255 81.4614C139.156 87.5762 132.758 90.8098 126.916 90.8098C119.27 90.8098 112.424 85.449 112.424 73.9339V49.909C112.424 47.143 111.104 44.9401 109.059 43.7579C108.598 43.4912 108.687 42.8195 109.21 42.7273L118.519 41.0611C123.103 40.2412 127.311 43.7645 127.311 48.4207V75.2247C127.311 79.9763 130.736 82.8938 134.658 83.2198C139.61 83.6314 143.693 79.3572 143.693 74.385V49.909C143.693 47.4888 142.679 45.4999 141.059 44.2486C140.394 43.7349 140.611 42.7042 141.438 42.556L158.294 39.5365C158.446 39.5101 158.584 39.6254 158.584 39.7769V79.9862C158.584 83.9574 159.447 86.5587 161.169 87C161.919 87.191 162.035 88.2809 161.403 88.732L161.396 88.7353Z" fill="#4A5568"/>
<path d="M355.567 70.9801C358.445 82.7917 348.915 90.8329 336.109 90.8329C329.026 90.8329 325.358 86.9539 320.564 90.418C320.343 90.5793 320.03 90.4443 320.03 90.171V75.0073C320.03 74.6649 320.485 74.543 320.656 74.8427C324.779 82.0442 328.651 89.2424 336.212 89.2424C341.572 89.2424 345.046 84.6752 343.064 79.7128C339.389 70.5817 320.728 72.4652 318.147 57.5748C316.26 45.9609 326.784 39.5068 337.107 39.5068C344.944 39.5068 348.379 43.3661 352.027 40.0765C352.248 39.8789 352.597 40.0106 352.597 40.307V55.1875C352.597 55.5398 352.136 55.6584 351.975 55.3489C348.859 49.3295 343.436 41.0973 337.407 41.0973C331.378 41.0973 328.075 45.4636 328.374 49.4348C329.069 59.6592 352.992 60.5516 355.574 70.9768L355.567 70.9801Z" fill="#4A5568"/>
</svg>
