<svg width="296" height="222" viewBox="0 0 296 222" fill="none" xmlns="http://www.w3.org/2000/svg">
<path d="M159.427 46.7193C159.073 47.334 158.417 47.7134 157.708 47.7134H147.351C146.642 47.7134 145.986 47.3339 145.636 46.7234L133.634 25.9296L135.588 24.7787C136.277 24.3745 136.301 23.3845 135.629 22.9472L125.994 16.6402C125.161 16.0957 124.155 17.032 124.646 17.9024L184.561 122.115C185.323 123.439 184.371 125.089 182.845 125.089H113.027C111.502 125.089 110.545 123.435 111.312 122.115L136.458 78.5805C136.813 77.9658 137.468 77.5905 138.173 77.5905H148.534C149.243 77.5905 149.899 77.97 150.249 78.5805L162.177 99.2506L160.334 100.335C159.646 100.74 159.621 101.73 160.293 102.167L169.928 108.478C170.761 109.023 171.767 108.086 171.276 107.216L111.337 3.19284C110.574 1.86873 111.527 0.21875 113.052 0.21875H182.796C184.321 0.21875 185.274 1.86873 184.515 3.19284L159.423 46.7276L159.427 46.7193Z" fill="#4A5568"/>
<path d="M60.5652 216.645L62.9925 202.973H58.7222L58.7823 202.612H67.7235L67.6634 202.973H63.3931L60.9658 216.645H60.5652Z" fill="#4A5568"/>
<path d="M70.3275 216.886C69.406 216.886 68.6514 216.665 68.0604 216.225C67.4728 215.784 67.0788 215.156 66.8785 214.342C66.6782 213.527 66.6648 212.585 66.8384 211.514C66.9987 210.672 67.2424 209.931 67.5696 209.287C67.8968 208.646 68.3008 208.105 68.7816 207.664C69.2624 207.223 69.7966 206.886 70.3842 206.652C70.9719 206.419 71.5929 206.302 72.2473 206.302C73.2356 206.302 74.0102 206.519 74.5744 206.953C75.1353 207.387 75.5093 207.958 75.6962 208.666C75.8832 209.374 75.8966 210.148 75.7363 210.993C75.723 211.113 75.7029 211.22 75.6762 211.313C75.6495 211.407 75.6228 211.52 75.5961 211.654H67.0555L67.1156 211.293H75.2956C75.4826 210.252 75.4692 209.39 75.2555 208.706C75.0418 208.025 74.6712 207.521 74.1437 207.193C73.6162 206.866 72.9584 206.703 72.1671 206.703C71.4727 206.703 70.7949 206.863 70.1338 207.183C69.4727 207.504 68.8885 208.011 68.381 208.706C67.8735 209.4 67.5196 210.295 67.3192 211.394L67.2792 211.594C67.0655 212.716 67.0755 213.644 67.3092 214.372C67.5429 215.1 67.9336 215.634 68.4811 215.974C69.0287 216.315 69.6631 216.485 70.3842 216.485C71.3191 216.485 72.1304 216.258 72.8216 215.804C73.5093 215.35 74.0736 214.709 74.5143 213.881H74.955C74.6612 214.469 74.3006 214.989 73.8733 215.443C73.4459 215.898 72.9384 216.251 72.3508 216.505C71.7632 216.759 71.0887 216.886 70.3275 216.886Z" fill="#4A5568"/>
<path d="M77.7263 216.645L79.4892 206.542H79.8097L79.5092 208.889C80.0167 208.021 80.601 207.374 81.2621 206.946C81.9232 206.519 82.6677 206.305 83.4957 206.305C83.883 206.305 84.2703 206.379 84.6576 206.526C85.0449 206.672 85.3721 206.943 85.6392 207.337C85.9063 207.731 86.0533 208.295 86.08 209.03C86.3871 208.268 86.8679 207.624 87.5223 207.096C88.1767 206.569 88.978 206.305 89.9296 206.305C90.6641 206.305 91.2684 206.452 91.7426 206.746C92.2167 207.04 92.5439 207.497 92.7242 208.118C92.9045 208.739 92.8944 209.577 92.6941 210.636L91.6324 216.649H91.2517L92.3135 210.596C92.5405 209.233 92.4504 208.245 92.043 207.627C91.6357 207.013 90.9045 206.706 89.8495 206.706C89.2752 206.706 88.7176 206.846 88.1767 207.127C87.6358 207.407 87.1684 207.824 86.7744 208.379C86.3805 208.933 86.11 209.631 85.9631 210.472L84.8814 216.645H84.4607L85.5424 210.492C85.7828 209.183 85.7127 208.225 85.3321 207.614C84.9515 207.006 84.3204 206.702 83.439 206.702C82.7178 206.702 82.0567 206.879 81.4558 207.233C80.8548 207.587 80.3473 208.105 79.9333 208.786C79.5193 209.467 79.2321 210.322 79.0719 211.353L78.1303 216.645H77.7297H77.7263Z" fill="#4A5568"/>
<path d="M94.3269 221.056L96.8744 206.542H97.215L96.7342 209.751C97.028 209.123 97.4253 208.549 97.9261 208.028C98.4269 207.507 99.0012 207.09 99.6489 206.776C100.297 206.462 100.981 206.305 101.702 206.305C102.691 206.305 103.495 206.532 104.12 206.986C104.741 207.44 105.168 208.068 105.402 208.869C105.635 209.671 105.659 210.572 105.472 211.577C105.352 212.352 105.125 213.06 104.791 213.704C104.457 214.345 104.049 214.906 103.569 215.387C103.088 215.867 102.534 216.238 101.906 216.498C101.278 216.759 100.584 216.889 99.8226 216.889C99.1147 216.889 98.4937 216.746 97.9595 216.458C97.4253 216.171 96.9979 215.764 96.6774 215.236C96.3569 214.709 96.1632 214.085 96.0965 213.363L94.7342 221.063H94.3336L94.3269 221.056ZM99.9194 216.485C100.747 216.485 101.515 216.288 102.226 215.894C102.934 215.5 103.535 214.939 104.029 214.211C104.524 213.484 104.857 212.612 105.031 211.594C105.205 210.606 105.175 209.744 104.941 209.006C104.707 208.272 104.313 207.704 103.759 207.303C103.205 206.903 102.52 206.702 101.706 206.702C100.891 206.702 100.103 206.92 99.3785 207.354C98.654 207.788 98.0463 208.372 97.5455 209.106C97.0447 209.841 96.7141 210.669 96.5539 211.594C96.3936 212.542 96.427 213.387 96.654 214.121C96.8811 214.856 97.2751 215.433 97.836 215.854C98.3969 216.275 99.0914 216.485 99.9194 216.485Z" fill="#4A5568"/>
<path d="M111.148 216.886C110.453 216.886 109.852 216.749 109.345 216.475C108.837 216.201 108.473 215.767 108.253 215.173C108.032 214.579 108.016 213.794 108.203 212.816L109.305 206.542H109.705L108.603 212.719C108.376 214.001 108.493 214.953 108.954 215.567C109.415 216.181 110.179 216.488 111.251 216.488C111.972 216.488 112.63 216.318 113.224 215.978C113.819 215.637 114.326 215.136 114.747 214.475C115.167 213.814 115.451 213.003 115.598 212.038L116.58 206.546H116.98L115.217 216.649H114.897L115.157 214.382C114.637 215.276 114.026 215.918 113.324 216.305C112.623 216.692 111.899 216.886 111.148 216.886Z" fill="#4A5568"/>
<path d="M122.132 216.886C121.451 216.886 120.85 216.772 120.329 216.545C119.808 216.318 119.414 215.964 119.147 215.484C118.88 215.003 118.78 214.375 118.847 213.6H119.267C119.187 214.268 119.281 214.816 119.548 215.243C119.815 215.671 120.189 215.984 120.67 216.185C121.15 216.385 121.665 216.485 122.212 216.485C122.76 216.485 123.311 216.382 123.785 216.175C124.259 215.968 124.646 215.687 124.947 215.333C125.247 214.979 125.444 214.569 125.538 214.101C125.631 213.54 125.601 213.113 125.447 212.819C125.294 212.525 125.01 212.295 124.596 212.128C124.182 211.961 123.635 211.804 122.953 211.657C122.419 211.55 121.968 211.414 121.601 211.247C121.234 211.08 120.94 210.889 120.72 210.676C120.499 210.462 120.352 210.212 120.279 209.925C120.206 209.637 120.202 209.3 120.269 208.913C120.363 208.405 120.57 207.955 120.89 207.561C121.211 207.167 121.621 206.859 122.122 206.639C122.623 206.419 123.194 206.309 123.835 206.309C124.716 206.309 125.417 206.556 125.942 207.05C126.462 207.544 126.689 208.292 126.623 209.293H126.182C126.275 208.519 126.119 207.895 125.711 207.42C125.304 206.946 124.653 206.709 123.758 206.709C122.863 206.709 122.189 206.916 121.655 207.33C121.12 207.744 120.807 208.278 120.713 208.933C120.646 209.28 120.656 209.594 120.743 209.874C120.83 210.155 121.047 210.409 121.394 210.636C121.741 210.863 122.262 211.063 122.957 211.237C123.438 211.343 123.882 211.457 124.289 211.577C124.696 211.697 125.043 211.854 125.331 212.048C125.618 212.242 125.821 212.495 125.942 212.809C126.062 213.123 126.082 213.534 126.002 214.041C125.908 214.589 125.688 215.076 125.341 215.504C124.993 215.931 124.546 216.268 123.998 216.515C123.451 216.762 122.83 216.886 122.135 216.886H122.132Z" fill="#4A5568"/>
<path d="M137.41 216.886C136.729 216.886 136.128 216.772 135.607 216.545C135.087 216.318 134.693 215.964 134.425 215.484C134.158 215.003 134.058 214.375 134.125 213.6H134.546C134.466 214.268 134.559 214.816 134.826 215.243C135.093 215.671 135.467 215.984 135.948 216.185C136.429 216.385 136.943 216.485 137.49 216.485C138.038 216.485 138.589 216.382 139.063 216.175C139.537 215.968 139.924 215.687 140.225 215.333C140.525 214.979 140.722 214.569 140.816 214.101C140.909 213.54 140.879 213.113 140.726 212.819C140.572 212.525 140.288 212.295 139.874 212.128C139.46 211.961 138.913 211.804 138.232 211.657C137.698 211.55 137.247 211.414 136.88 211.247C136.512 211.08 136.218 210.889 135.998 210.676C135.778 210.462 135.631 210.212 135.557 209.925C135.484 209.637 135.481 209.3 135.547 208.913C135.641 208.405 135.848 207.955 136.168 207.561C136.489 207.167 136.9 206.859 137.4 206.639C137.901 206.419 138.472 206.309 139.113 206.309C139.995 206.309 140.696 206.556 141.22 207.05C141.741 207.544 141.968 208.292 141.901 209.293H141.46C141.554 208.519 141.397 207.895 140.99 207.42C140.582 206.946 139.931 206.709 139.036 206.709C138.142 206.709 137.467 206.916 136.933 207.33C136.399 207.744 136.085 208.278 135.991 208.933C135.925 209.28 135.935 209.594 136.021 209.874C136.108 210.155 136.325 210.409 136.673 210.636C137.02 210.863 137.541 211.063 138.235 211.237C138.716 211.343 139.16 211.457 139.567 211.577C139.975 211.697 140.322 211.854 140.609 212.048C140.896 212.242 141.1 212.495 141.22 212.809C141.34 213.123 141.36 213.534 141.28 214.041C141.187 214.589 140.966 215.076 140.619 215.504C140.272 215.931 139.824 216.268 139.277 216.515C138.729 216.762 138.108 216.886 137.414 216.886H137.41Z" fill="#4A5568"/>
<path d="M147.514 216.886C146.819 216.886 146.218 216.749 145.711 216.475C145.203 216.201 144.839 215.767 144.619 215.173C144.399 214.579 144.382 213.794 144.569 212.816L145.671 206.542H146.071L144.97 212.719C144.743 214.001 144.859 214.953 145.32 215.567C145.781 216.181 146.545 216.488 147.617 216.488C148.338 216.488 148.996 216.318 149.59 215.978C150.185 215.637 150.692 215.136 151.113 214.475C151.534 213.814 151.817 213.003 151.964 212.038L152.946 206.546H153.347L151.584 216.649H151.263L151.524 214.382C151.003 215.276 150.392 215.918 149.691 216.305C148.989 216.692 148.265 216.886 147.514 216.886Z" fill="#4A5568"/>
<path d="M159.944 216.886C159.263 216.886 158.655 216.742 158.121 216.455C157.587 216.168 157.156 215.774 156.829 215.273C156.502 214.772 156.298 214.208 156.218 213.58L155.537 216.649H155.216L157.764 202.335H158.164L156.842 209.834C157.323 208.766 158.004 207.911 158.886 207.267C159.767 206.622 160.749 206.305 161.834 206.305C162.822 206.305 163.623 206.536 164.241 206.996C164.855 207.457 165.279 208.088 165.513 208.889C165.747 209.691 165.777 210.599 165.603 211.617C165.47 212.365 165.239 213.066 164.912 213.721C164.585 214.375 164.178 214.939 163.69 215.413C163.203 215.887 162.645 216.251 162.017 216.505C161.39 216.759 160.702 216.886 159.951 216.886H159.944ZM160.024 216.485C160.852 216.485 161.623 216.285 162.341 215.884C163.056 215.483 163.657 214.919 164.144 214.191C164.632 213.463 164.969 212.599 165.156 211.594C165.329 210.592 165.299 209.724 165.066 208.986C164.832 208.252 164.431 207.687 163.864 207.293C163.296 206.899 162.605 206.702 161.79 206.702C160.976 206.702 160.194 206.916 159.483 207.344C158.772 207.771 158.171 208.348 157.67 209.076C157.169 209.804 156.839 210.642 156.679 211.594C156.518 212.529 156.552 213.363 156.779 214.101C157.006 214.836 157.4 215.417 157.961 215.844C158.522 216.271 159.209 216.485 160.027 216.485H160.024Z" fill="#4A5568"/>
<path d="M177.206 216.886C176.311 216.886 175.553 216.672 174.932 216.245C174.311 215.817 173.874 215.21 173.62 214.422C173.366 213.634 173.326 212.706 173.5 211.634C173.66 210.793 173.917 210.045 174.271 209.39C174.625 208.736 175.052 208.182 175.553 207.728C176.054 207.273 176.605 206.923 177.206 206.676C177.807 206.429 178.428 206.305 179.069 206.305C180.164 206.305 181.025 206.589 181.656 207.157C182.284 207.724 182.611 208.429 182.638 209.27H182.197C182.157 208.482 181.853 207.858 181.286 207.397C180.718 206.936 179.967 206.706 179.032 206.706C178.324 206.706 177.62 206.886 176.919 207.247C176.217 207.607 175.596 208.148 175.055 208.869C174.515 209.591 174.151 210.505 173.964 211.617C173.803 212.499 173.787 213.243 173.914 213.854C174.041 214.462 174.271 214.959 174.605 215.347C174.939 215.734 175.329 216.021 175.777 216.208C176.224 216.395 176.688 216.488 177.169 216.488C177.81 216.488 178.408 216.385 178.965 216.178C179.519 215.971 180.01 215.68 180.438 215.307C180.865 214.933 181.179 214.472 181.379 213.924H181.82C181.606 214.472 181.286 214.973 180.858 215.427C180.431 215.881 179.91 216.238 179.296 216.498C178.681 216.759 177.987 216.889 177.209 216.889L177.206 216.886Z" fill="#4A5568"/>
<path d="M188.631 216.886C187.709 216.886 186.928 216.675 186.284 216.255C185.643 215.834 185.189 215.226 184.921 214.432C184.654 213.637 184.614 212.692 184.801 211.594C184.948 210.779 185.199 210.045 185.553 209.39C185.906 208.736 186.344 208.182 186.865 207.728C187.385 207.273 187.956 206.923 188.577 206.676C189.198 206.429 189.849 206.305 190.531 206.305C191.452 206.305 192.237 206.516 192.888 206.936C193.536 207.357 194 207.965 194.28 208.759C194.561 209.554 194.601 210.499 194.4 211.597C194.253 212.439 194 213.183 193.639 213.834C193.278 214.482 192.838 215.033 192.317 215.487C191.796 215.941 191.222 216.288 190.594 216.529C189.966 216.769 189.312 216.889 188.631 216.889V216.886ZM188.691 216.485C189.452 216.485 190.2 216.305 190.935 215.944C191.669 215.584 192.31 215.039 192.858 214.312C193.405 213.584 193.773 212.686 193.96 211.614C194.147 210.519 194.1 209.611 193.819 208.886C193.539 208.165 193.101 207.621 192.507 207.253C191.913 206.886 191.248 206.702 190.514 206.702C189.739 206.702 188.988 206.886 188.26 207.253C187.532 207.621 186.898 208.165 186.357 208.886C185.816 209.607 185.446 210.509 185.245 211.594C185.058 212.676 185.102 213.584 185.376 214.312C185.649 215.039 186.083 215.584 186.678 215.944C187.272 216.305 187.943 216.485 188.694 216.485H188.691Z" fill="#4A5568"/>
<path d="M196.651 216.645L198.413 206.542H198.734L198.454 208.829C198.974 207.948 199.589 207.307 200.296 206.906C201.004 206.505 201.732 206.305 202.48 206.305C203.175 206.305 203.776 206.442 204.283 206.716C204.791 206.99 205.151 207.424 205.365 208.018C205.578 208.612 205.598 209.404 205.425 210.395L204.323 216.649H203.922L205.004 210.495C205.245 209.2 205.138 208.245 204.684 207.627C204.23 207.013 203.482 206.706 202.437 206.706C201.742 206.706 201.091 206.879 200.483 207.227C199.876 207.574 199.355 208.075 198.921 208.729C198.487 209.384 198.183 210.192 198.009 211.156L197.048 216.649H196.647L196.651 216.645Z" fill="#4A5568"/>
<path d="M211.024 216.645C210.53 216.645 210.132 216.572 209.832 216.425C209.532 216.278 209.331 216.024 209.231 215.664C209.131 215.303 209.134 214.816 209.241 214.201L210.543 206.903H208.78L208.84 206.542H210.603L211.044 204.479H211.364L211.004 206.542H214.313L214.232 206.903H210.924L209.642 214.201C209.508 214.936 209.555 215.467 209.782 215.794C210.009 216.121 210.456 216.285 211.124 216.285H212.326L212.246 216.645H211.024Z" fill="#4A5568"/>
<path d="M215.314 216.645L217.077 206.542H217.418L217.117 208.649C217.491 208.061 217.895 207.597 218.329 207.257C218.763 206.916 219.251 206.672 219.791 206.526C220.332 206.379 220.91 206.305 221.524 206.305L221.464 206.666H221.244C220.897 206.666 220.493 206.726 220.032 206.846C219.571 206.966 219.117 207.173 218.67 207.467C218.222 207.761 217.825 208.182 217.478 208.729C217.131 209.277 216.883 209.985 216.736 210.853L215.715 216.645H215.314Z" fill="#4A5568"/>
<path d="M226.182 216.886C225.261 216.886 224.479 216.675 223.835 216.255C223.194 215.834 222.74 215.226 222.473 214.432C222.206 213.637 222.166 212.692 222.353 211.594C222.499 210.779 222.75 210.045 223.104 209.39C223.458 208.736 223.895 208.182 224.416 207.728C224.937 207.273 225.508 206.923 226.129 206.676C226.75 206.429 227.401 206.305 228.082 206.305C229.003 206.305 229.788 206.516 230.439 206.936C231.087 207.357 231.551 207.965 231.831 208.759C232.112 209.554 232.152 210.499 231.952 211.597C231.805 212.439 231.551 213.183 231.19 213.834C230.83 214.482 230.389 215.033 229.868 215.487C229.347 215.941 228.773 216.288 228.145 216.529C227.518 216.769 226.863 216.889 226.182 216.889V216.886ZM226.242 216.485C227.003 216.485 227.751 216.305 228.489 215.944C229.224 215.584 229.865 215.039 230.412 214.312C230.96 213.584 231.327 212.686 231.514 211.614C231.701 210.519 231.654 209.611 231.374 208.886C231.093 208.165 230.656 207.621 230.062 207.253C229.467 206.886 228.803 206.702 228.069 206.702C227.294 206.702 226.543 206.886 225.812 207.253C225.084 207.621 224.449 208.165 223.908 208.886C223.368 209.607 222.997 210.509 222.797 211.594C222.61 212.676 222.653 213.584 222.927 214.312C223.201 215.039 223.635 215.584 224.229 215.944C224.823 216.305 225.494 216.485 226.242 216.485Z" fill="#4A5568"/>
<path d="M234.202 216.645L236.749 202.212H237.15L234.603 216.645H234.202Z" fill="#4A5568"/>
<path d="M0.51709 125.089H60.5084V141.737C60.5084 142.164 59.9375 142.264 59.7739 141.867C56.8157 134.718 48.5889 132.598 39.8881 132.411C39.1602 132.395 38.5625 132.992 38.5625 133.72V188.703C38.5625 191.541 39.9348 194.115 42.0449 195.695C42.4622 196.008 42.2686 196.656 41.7478 196.656H19.2777C18.7569 196.656 18.5632 196.008 18.9806 195.695C21.0907 194.115 22.4596 191.541 22.4596 188.703V133.72C22.4596 132.992 21.8619 132.395 21.1341 132.411C12.4232 132.598 4.24986 134.728 1.25163 141.924C1.08803 142.317 0.51709 142.217 0.51709 141.79V125.089Z" fill="#4A5568"/>
<path d="M146.004 149.997L135.714 159.739C135.414 160.023 134.93 159.839 134.863 159.429C133.267 149.606 125.164 151.552 120.954 161.015C120.924 161.085 120.903 161.165 120.903 161.242V188.703C120.903 191.564 122.299 194.162 124.439 195.735C124.843 196.032 124.656 196.653 124.155 196.653H102.554C102.053 196.653 101.866 196.032 102.27 195.735C104.41 194.159 105.805 191.564 105.805 188.703V156.193C105.805 153.249 104.41 150.968 102.263 149.786C101.836 149.549 101.916 148.928 102.4 148.841L124.005 144.985C124.513 144.895 124.807 145.513 124.426 145.863C122.292 147.836 120.903 150.624 120.903 153.479V158.41C122.917 151.162 129.157 144.621 135.397 144.621C139.457 144.621 143.33 146.2 146.038 149.265C146.225 149.476 146.205 149.806 146.001 150L146.004 149.997Z" fill="#4A5568"/>
<path d="M199.361 196.653H180.113C179.255 196.653 178.871 195.624 179.489 195.03C181.148 193.441 182.187 191.17 182.187 188.703V160.42C182.187 151.756 170.955 149.102 165.747 156.941C165.64 157.105 165.58 157.305 165.58 157.499V188.703C165.58 191.17 166.618 193.444 168.277 195.03C168.898 195.624 168.514 196.653 167.653 196.653H148.405C147.547 196.653 147.163 195.624 147.781 195.03C149.44 193.441 150.478 191.17 150.478 188.703V156.193C150.478 153.646 149.433 151.596 147.764 150.324C147.103 149.82 147.323 148.795 148.138 148.651L167.369 145.219C168.254 145.062 168.808 146.093 168.217 146.771C166.591 148.648 165.576 151.038 165.576 153.479V154.888C169.703 148.244 176.447 144.621 182.587 144.621C190.437 144.621 197.281 150.057 197.281 161.732V188.706C197.281 191.174 198.32 193.447 199.979 195.033C200.6 195.628 200.216 196.656 199.355 196.656L199.361 196.653Z" fill="#4A5568"/>
<path d="M252.989 194.549C250.585 196.262 247.41 196.81 243.894 196.616C238.94 196.346 235.037 192.259 235.037 187.298C235.037 187.054 234.729 186.97 234.596 187.174C230.439 193.374 223.952 196.653 218.029 196.653C210.276 196.653 203.335 191.217 203.335 179.542V155.182C203.335 152.377 201.996 150.144 199.922 148.945C199.455 148.674 199.545 147.993 200.076 147.9L209.515 146.21C214.162 145.379 218.429 148.952 218.429 153.673V180.85C218.429 185.668 221.902 188.626 225.878 188.957C230.9 189.374 235.04 185.041 235.04 179.999V155.182C235.04 152.728 234.012 150.711 232.369 149.442C231.694 148.922 231.915 147.876 232.753 147.726L249.844 144.665C249.998 144.638 250.138 144.755 250.138 144.908V185.678C250.138 189.705 251.013 192.342 252.759 192.79C253.52 192.983 253.637 194.089 252.996 194.546L252.989 194.549Z" fill="#4A5568"/>
<path d="M97.9528 194.526C95.5488 196.239 92.3737 196.786 88.8579 196.593C83.9032 196.322 80.0001 192.236 80.0001 187.274C80.0001 187.03 79.693 186.947 79.5594 187.151C75.4026 193.351 68.9154 196.629 62.9924 196.629C55.2397 196.629 48.2984 191.194 48.2984 179.518V155.158C48.2984 152.354 46.9595 150.12 44.8861 148.921C44.4187 148.651 44.5089 147.97 45.0397 147.876L54.4785 146.187C59.1261 145.356 63.393 148.928 63.393 153.649V180.827C63.393 185.645 66.8653 188.603 70.8418 188.933C75.8634 189.351 80.0035 185.017 80.0035 179.976V155.158C80.0035 152.704 78.9751 150.688 77.3324 149.419C76.658 148.898 76.8784 147.853 77.7164 147.703L94.8076 144.641C94.9612 144.614 95.1015 144.731 95.1015 144.885V185.655C95.1015 189.681 95.9762 192.319 97.7224 192.766C98.4836 192.96 98.6005 194.065 97.9595 194.523L97.9528 194.526Z" fill="#4A5568"/>
<path d="M294.831 176.523C297.749 188.499 288.087 196.653 275.102 196.653C267.92 196.653 264.201 192.72 259.34 196.232C259.116 196.396 258.799 196.259 258.799 195.982V180.607C258.799 180.259 259.259 180.136 259.433 180.44C263.613 187.742 267.54 195.04 275.205 195.04C280.641 195.04 284.163 190.409 282.153 185.378C278.427 176.119 259.507 178.029 256.889 162.931C254.976 151.155 265.647 144.611 276.114 144.611C284.06 144.611 287.542 148.524 291.242 145.189C291.465 144.988 291.819 145.122 291.819 145.422V160.51C291.819 160.868 291.352 160.988 291.188 160.674C288.03 154.571 282.531 146.224 276.417 146.224C270.304 146.224 266.955 150.651 267.259 154.678C267.964 165.044 292.22 165.949 294.838 176.52L294.831 176.523Z" fill="#4A5568"/>
</svg>
