<svg width="1844" height="592" viewBox="0 0 1844 592" fill="none" xmlns="http://www.w3.org/2000/svg">
<path d="M220.627 211.977C219.011 214.769 216.022 216.493 212.789 216.493H165.571C162.338 216.493 159.349 214.769 157.751 211.996L103.033 117.532L111.943 112.304C115.082 110.468 115.195 105.97 112.131 103.984L68.2026 75.3317C64.4056 72.8582 59.8192 77.1119 62.0561 81.0659L335.214 554.49C338.691 560.505 334.349 568.001 327.394 568.001H9.0862C2.13132 568.001 -2.22964 560.487 1.2666 554.49L115.909 356.718C117.526 353.926 120.515 352.22 123.729 352.22H170.966C174.199 352.22 177.188 353.944 178.785 356.718L233.165 450.619L224.763 455.548C221.624 457.384 221.511 461.882 224.575 463.868L268.503 492.539C272.3 495.012 276.887 490.759 274.65 486.805L1.37937 14.2423C-2.09807 8.22709 2.2441 0.731445 9.19898 0.731445H327.169C334.124 0.731445 338.466 8.22709 335.007 14.2423L220.609 212.015L220.627 211.977Z" fill="#E9FBFF"/>
<path d="M939.517 569.058L951.927 499.154H930.094L930.401 497.31H976.116L975.809 499.154H953.975L941.565 569.058H939.517Z" fill="#E9FBFF"/>
<path d="M989.429 570.287C984.717 570.287 980.859 569.161 977.838 566.908C974.833 564.654 972.819 561.445 971.795 557.28C970.77 553.115 970.702 548.301 971.59 542.821C972.409 538.519 973.655 534.73 975.328 531.435C977.001 528.157 979.067 525.392 981.525 523.139C983.983 520.885 986.714 519.161 989.719 517.966C992.723 516.771 995.898 516.174 999.244 516.174C1004.3 516.174 1008.26 517.283 1011.14 519.503C1014.01 521.722 1015.92 524.641 1016.88 528.26C1017.83 531.879 1017.9 535.839 1017.08 540.158C1017.01 540.772 1016.91 541.319 1016.78 541.797C1016.64 542.275 1016.5 542.855 1016.37 543.538H972.7L973.007 541.694H1014.83C1015.79 536.368 1015.72 531.964 1014.62 528.465C1013.53 524.982 1011.64 522.405 1008.94 520.732C1006.24 519.059 1002.88 518.222 998.834 518.222C995.284 518.222 991.818 519.042 988.438 520.68C985.059 522.319 982.071 524.914 979.476 528.465C976.882 532.015 975.072 536.59 974.048 542.206L973.843 543.231C972.751 548.966 972.802 553.712 973.997 557.433C975.192 561.155 977.189 563.886 979.989 565.627C982.788 567.368 986.032 568.239 989.719 568.239C994.499 568.239 998.647 567.078 1002.18 564.757C1005.7 562.435 1008.58 559.157 1010.84 554.924H1013.09C1011.59 557.928 1009.74 560.591 1007.56 562.913C1005.37 565.235 1002.78 567.044 999.773 568.341C996.769 569.639 993.321 570.287 989.429 570.287Z" fill="#E9FBFF"/>
<path d="M1027.26 569.059L1036.27 517.403H1037.91L1036.37 529.404C1038.97 524.966 1041.95 521.654 1045.33 519.469C1048.71 517.284 1052.52 516.191 1056.75 516.191C1058.73 516.191 1060.71 516.567 1062.69 517.318C1064.67 518.069 1066.35 519.452 1067.71 521.466C1069.08 523.481 1069.83 526.366 1069.97 530.121C1071.54 526.229 1074 522.934 1077.34 520.237C1080.69 517.54 1084.78 516.191 1089.65 516.191C1093.4 516.191 1096.49 516.943 1098.92 518.445C1101.34 519.947 1103.01 522.286 1103.94 525.461C1104.86 528.636 1104.81 532.921 1103.78 538.332L1098.35 569.076H1096.41L1101.84 538.127C1103 531.162 1102.54 526.109 1100.45 522.951C1098.37 519.81 1094.63 518.24 1089.24 518.24C1086.3 518.24 1083.45 518.957 1080.69 520.391C1077.92 521.825 1075.53 523.959 1073.52 526.792C1071.5 529.626 1070.12 533.194 1069.37 537.495L1063.84 569.059H1061.69L1067.22 537.598C1068.45 530.906 1068.09 526.007 1066.14 522.883C1064.2 519.776 1060.97 518.223 1056.46 518.223C1052.78 518.223 1049.4 519.128 1046.32 520.937C1043.25 522.747 1040.66 525.392 1038.54 528.875C1036.42 532.357 1034.95 536.727 1034.14 542.002L1029.32 569.059H1027.27H1027.26Z" fill="#E9FBFF"/>
<path d="M1112.13 591.609L1125.16 517.403H1126.9L1124.44 533.808C1125.94 530.599 1127.98 527.663 1130.54 525C1133.1 522.337 1136.03 520.203 1139.35 518.598C1142.66 516.994 1146.16 516.191 1149.84 516.191C1154.9 516.191 1159.01 517.352 1162.2 519.674C1165.38 521.995 1167.56 525.205 1168.76 529.302C1169.95 533.398 1170.07 538.008 1169.12 543.146C1168.5 547.106 1167.34 550.725 1165.63 554.02C1163.93 557.297 1161.84 560.165 1159.39 562.623C1156.93 565.081 1154.09 566.976 1150.88 568.308C1147.68 569.639 1144.12 570.305 1140.23 570.305C1136.61 570.305 1133.44 569.571 1130.71 568.103C1127.98 566.635 1125.79 564.552 1124.15 561.855C1122.51 559.158 1121.52 555.966 1121.18 552.279L1114.22 591.643H1112.17L1112.13 591.609ZM1140.73 568.239C1144.96 568.239 1148.89 567.232 1152.52 565.218C1156.14 563.204 1159.22 560.336 1161.74 556.614C1164.27 552.893 1165.98 548.438 1166.86 543.231C1167.75 538.178 1167.6 533.774 1166.4 530.002C1165.21 526.246 1163.19 523.344 1160.36 521.295C1157.53 519.247 1154.03 518.223 1149.86 518.223C1145.7 518.223 1141.67 519.332 1137.96 521.552C1134.26 523.771 1131.15 526.758 1128.59 530.514C1126.03 534.269 1124.34 538.503 1123.52 543.231C1122.7 548.079 1122.87 552.398 1124.03 556.154C1125.19 559.909 1127.21 562.862 1130.08 565.013C1132.94 567.164 1136.49 568.239 1140.73 568.239Z" fill="#E9FBFF"/>
<path d="M1198.14 570.288C1194.59 570.288 1191.51 569.588 1188.92 568.188C1186.32 566.789 1184.46 564.569 1183.34 561.531C1182.21 558.492 1182.12 554.481 1183.08 549.479L1188.71 517.404H1190.76L1185.13 548.984C1183.97 555.539 1184.57 560.404 1186.92 563.545C1189.28 566.686 1193.19 568.257 1198.67 568.257C1202.35 568.257 1205.72 567.386 1208.75 565.645C1211.79 563.904 1214.39 561.343 1216.54 557.963C1218.69 554.583 1220.14 550.435 1220.89 545.502L1225.91 517.421H1227.96L1218.95 569.076H1217.31L1218.64 557.485C1215.98 562.06 1212.85 565.338 1209.27 567.318C1205.68 569.298 1201.98 570.288 1198.14 570.288Z" fill="#E9FBFF"/>
<path d="M1254.3 570.287C1250.81 570.287 1247.74 569.707 1245.08 568.546C1242.42 567.385 1240.4 565.576 1239.04 563.118C1237.67 560.66 1237.16 557.45 1237.5 553.49H1239.65C1239.24 556.904 1239.72 559.704 1241.08 561.889C1242.45 564.074 1244.36 565.678 1246.82 566.703C1249.28 567.727 1251.91 568.239 1254.71 568.239C1257.51 568.239 1260.32 567.71 1262.75 566.651C1265.17 565.593 1267.15 564.159 1268.69 562.35C1270.22 560.54 1271.23 558.44 1271.71 556.051C1272.19 553.183 1272.03 550.998 1271.25 549.496C1270.46 547.993 1269.01 546.815 1266.89 545.962C1264.78 545.108 1261.98 544.306 1258.5 543.555C1255.76 543.009 1253.46 542.309 1251.58 541.455C1249.7 540.602 1248.2 539.629 1247.08 538.536C1245.95 537.444 1245.2 536.163 1244.82 534.695C1244.45 533.227 1244.43 531.503 1244.77 529.523C1245.25 526.928 1246.31 524.624 1247.95 522.609C1249.58 520.595 1251.68 519.025 1254.25 517.898C1256.81 516.771 1259.72 516.208 1263 516.208C1267.51 516.208 1271.09 517.471 1273.77 519.998C1276.44 522.524 1277.6 526.348 1277.26 531.469H1275C1275.48 527.509 1274.68 524.317 1272.6 521.893C1270.51 519.469 1267.18 518.256 1262.61 518.256C1258.03 518.256 1254.59 519.315 1251.86 521.432C1249.12 523.548 1247.52 526.28 1247.04 529.625C1246.7 531.401 1246.75 533.005 1247.19 534.439C1247.64 535.873 1248.75 537.171 1250.52 538.331C1252.3 539.492 1254.96 540.516 1258.51 541.404C1260.97 541.95 1263.24 542.531 1265.32 543.145C1267.41 543.76 1269.18 544.562 1270.65 545.552C1272.12 546.542 1273.16 547.84 1273.77 549.444C1274.39 551.049 1274.49 553.149 1274.08 555.743C1273.6 558.543 1272.48 561.035 1270.7 563.22C1268.93 565.405 1266.64 567.129 1263.84 568.393C1261.04 569.656 1257.86 570.287 1254.31 570.287H1254.3Z" fill="#E9FBFF"/>
<path d="M1332.41 570.287C1328.93 570.287 1325.86 569.707 1323.2 568.546C1320.53 567.385 1318.52 565.576 1317.15 563.118C1315.79 560.66 1315.27 557.45 1315.62 553.49H1317.77C1317.36 556.904 1317.84 559.704 1319.2 561.889C1320.57 564.074 1322.48 565.678 1324.94 566.703C1327.39 567.727 1330.02 568.239 1332.82 568.239C1335.62 568.239 1338.44 567.71 1340.86 566.651C1343.29 565.593 1345.27 564.159 1346.8 562.35C1348.34 560.54 1349.35 558.44 1349.83 556.051C1350.3 553.183 1350.15 550.998 1349.36 549.496C1348.58 547.993 1347.13 546.815 1345.01 545.962C1342.89 545.108 1340.1 544.306 1336.61 543.555C1333.88 543.009 1331.58 542.309 1329.7 541.455C1327.82 540.602 1326.32 539.629 1325.19 538.536C1324.07 537.444 1323.31 536.163 1322.94 534.695C1322.56 533.227 1322.55 531.503 1322.89 529.523C1323.37 526.928 1324.42 524.624 1326.06 522.609C1327.7 520.595 1329.8 519.025 1332.36 517.898C1334.92 516.771 1337.84 516.208 1341.12 516.208C1345.63 516.208 1349.21 517.471 1351.89 519.998C1354.55 522.524 1355.71 526.348 1355.37 531.469H1353.12C1353.6 527.509 1352.8 524.317 1350.71 521.893C1348.63 519.469 1345.3 518.256 1340.73 518.256C1336.15 518.256 1332.7 519.315 1329.97 521.432C1327.24 523.548 1325.64 526.28 1325.16 529.625C1324.82 531.401 1324.87 533.005 1325.31 534.439C1325.76 535.873 1326.87 537.171 1328.64 538.331C1330.42 539.492 1333.08 540.516 1336.63 541.404C1339.09 541.95 1341.36 542.531 1343.44 543.145C1345.52 543.76 1347.3 544.562 1348.77 545.552C1350.24 546.542 1351.28 547.84 1351.89 549.444C1352.51 551.049 1352.61 553.149 1352.2 555.743C1351.72 558.543 1350.59 561.035 1348.82 563.22C1347.04 565.405 1344.76 567.129 1341.96 568.393C1339.16 569.656 1335.98 570.287 1332.43 570.287H1332.41Z" fill="#E9FBFF"/>
<path d="M1384.07 570.288C1380.52 570.288 1377.44 569.588 1374.85 568.188C1372.26 566.789 1370.39 564.569 1369.27 561.531C1368.14 558.492 1368.06 554.481 1369.01 549.479L1374.64 517.404H1376.69L1371.06 548.984C1369.9 555.539 1370.5 560.404 1372.85 563.545C1375.21 566.686 1379.12 568.257 1384.6 568.257C1388.28 568.257 1391.65 567.386 1394.69 565.645C1397.72 563.904 1400.32 561.343 1402.47 557.963C1404.62 554.583 1406.07 550.435 1406.82 545.502L1411.84 517.421H1413.89L1404.88 569.076H1403.24L1404.57 557.485C1401.91 562.06 1398.78 565.338 1395.2 567.318C1391.61 569.298 1387.91 570.288 1384.07 570.288Z" fill="#E9FBFF"/>
<path d="M1447.62 570.288C1444.14 570.288 1441.03 569.554 1438.3 568.086C1435.57 566.618 1433.37 564.603 1431.7 562.043C1430.02 559.482 1428.98 556.597 1428.57 553.388L1425.09 569.076H1423.45L1436.48 495.894H1438.52L1431.76 534.235C1434.22 528.772 1437.71 524.402 1442.21 521.107C1446.72 517.813 1451.74 516.191 1457.28 516.191C1462.34 516.191 1466.43 517.369 1469.59 519.725C1472.73 522.081 1474.9 525.307 1476.1 529.404C1477.29 533.501 1477.45 538.144 1476.56 543.35C1475.87 547.174 1474.7 550.759 1473.02 554.105C1471.35 557.451 1469.27 560.336 1466.78 562.76C1464.28 565.184 1461.43 567.044 1458.22 568.342C1455.01 569.639 1451.5 570.288 1447.66 570.288H1447.62ZM1448.03 568.239C1452.27 568.239 1456.21 567.215 1459.88 565.167C1463.53 563.118 1466.61 560.233 1469.1 556.512C1471.59 552.79 1473.31 548.369 1474.27 543.231C1475.16 538.11 1475 533.671 1473.81 529.899C1472.61 526.143 1470.57 523.258 1467.66 521.244C1464.76 519.23 1461.23 518.223 1457.06 518.223C1452.9 518.223 1448.9 519.315 1445.27 521.5C1441.63 523.685 1438.56 526.638 1436 530.36C1433.44 534.081 1431.75 538.366 1430.93 543.231C1430.11 548.011 1430.28 552.278 1431.44 556.051C1432.6 559.806 1434.62 562.777 1437.48 564.962C1440.35 567.147 1443.87 568.239 1448.05 568.239H1448.03Z" fill="#E9FBFF"/>
<path d="M1535.88 570.288C1531.3 570.288 1527.43 569.195 1524.25 567.01C1521.08 564.825 1518.84 561.719 1517.54 557.69C1516.24 553.661 1516.04 548.916 1516.93 543.436C1517.75 539.134 1519.06 535.31 1520.87 531.965C1522.68 528.619 1524.87 525.785 1527.43 523.463C1529.99 521.142 1532.8 519.349 1535.88 518.086C1538.95 516.823 1542.12 516.191 1545.4 516.191C1551 516.191 1555.4 517.642 1558.63 520.544C1561.84 523.446 1563.51 527.048 1563.65 531.35H1561.4C1561.19 527.321 1559.64 524.129 1556.74 521.774C1553.83 519.418 1549.99 518.24 1545.21 518.24C1541.59 518.24 1537.99 519.162 1534.41 521.005C1530.82 522.849 1527.65 525.614 1524.88 529.302C1522.12 532.989 1520.26 537.666 1519.3 543.351C1518.48 547.857 1518.4 551.664 1519.04 554.788C1519.69 557.895 1520.87 560.438 1522.58 562.418C1524.29 564.399 1526.28 565.867 1528.57 566.823C1530.86 567.779 1533.23 568.257 1535.69 568.257C1538.97 568.257 1542.02 567.727 1544.87 566.669C1547.71 565.611 1550.22 564.126 1552.4 562.214C1554.59 560.302 1556.19 557.946 1557.21 555.146H1559.47C1558.37 557.946 1556.74 560.507 1554.55 562.828C1552.37 565.15 1549.7 566.976 1546.56 568.308C1543.42 569.639 1539.87 570.305 1535.89 570.305L1535.88 570.288Z" fill="#E9FBFF"/>
<path d="M1594.29 570.288C1589.58 570.288 1585.58 569.212 1582.29 567.062C1579.01 564.911 1576.69 561.804 1575.33 557.741C1573.96 553.678 1573.75 548.847 1574.71 543.231C1575.46 539.066 1576.74 535.31 1578.55 531.965C1580.36 528.619 1582.6 525.785 1585.26 523.463C1587.92 521.142 1590.84 519.349 1594.02 518.086C1597.19 516.823 1600.52 516.191 1604 516.191C1608.71 516.191 1612.73 517.267 1616.06 519.418C1619.37 521.569 1621.74 524.675 1623.17 528.738C1624.61 532.801 1624.81 537.632 1623.79 543.248C1623.04 547.55 1621.74 551.357 1619.9 554.685C1618.05 557.997 1615.8 560.814 1613.14 563.135C1610.47 565.457 1607.54 567.232 1604.33 568.461C1601.12 569.69 1597.77 570.305 1594.29 570.305V570.288ZM1594.6 568.239C1598.49 568.239 1602.31 567.318 1606.07 565.474C1609.82 563.63 1613.1 560.848 1615.9 557.127C1618.7 553.405 1620.58 548.813 1621.53 543.334C1622.49 537.734 1622.25 533.091 1620.82 529.387C1619.38 525.7 1617.15 522.917 1614.11 521.039C1611.07 519.162 1607.67 518.223 1603.92 518.223C1599.96 518.223 1596.12 519.162 1592.4 521.039C1588.67 522.917 1585.43 525.7 1582.67 529.387C1579.9 533.074 1578.01 537.683 1576.98 543.231C1576.02 548.762 1576.25 553.405 1577.65 557.127C1579.05 560.848 1581.27 563.63 1584.3 565.474C1587.34 567.318 1590.77 568.239 1594.61 568.239H1594.6Z" fill="#E9FBFF"/>
<path d="M1635.29 569.059L1644.31 517.403H1645.95L1644.51 529.097C1647.18 524.59 1650.32 521.313 1653.94 519.264C1657.55 517.216 1661.28 516.191 1665.1 516.191C1668.65 516.191 1671.72 516.891 1674.32 518.291C1676.91 519.691 1678.76 521.91 1679.85 524.949C1680.94 527.987 1681.04 532.033 1680.16 537.103L1674.52 569.076H1672.47L1678 537.615C1679.23 530.992 1678.69 526.109 1676.37 522.951C1674.04 519.81 1670.22 518.24 1664.88 518.24C1661.33 518.24 1658 519.128 1654.89 520.903C1651.78 522.678 1649.12 525.239 1646.9 528.585C1644.68 531.93 1643.13 536.062 1642.24 540.995L1637.33 569.076H1635.28L1635.29 569.059Z" fill="#E9FBFF"/>
<path d="M1708.78 569.059C1706.25 569.059 1704.22 568.683 1702.69 567.932C1701.15 567.181 1700.13 565.883 1699.61 564.04C1699.1 562.196 1699.12 559.704 1699.66 556.563L1706.32 519.247H1697.31L1697.62 517.403H1706.63L1708.88 506.854H1710.52L1708.68 517.403H1725.59L1725.18 519.247H1708.27L1701.71 556.563C1701.03 560.318 1701.27 563.033 1702.43 564.705C1703.59 566.378 1705.88 567.215 1709.29 567.215H1715.44L1715.03 569.059H1708.78Z" fill="#E9FBFF"/>
<path d="M1730.72 569.059L1739.73 517.403H1741.47L1739.94 528.175C1741.85 525.171 1743.91 522.798 1746.13 521.056C1748.35 519.315 1750.84 518.069 1753.61 517.318C1756.37 516.567 1759.33 516.191 1762.47 516.191L1762.16 518.035H1761.03C1759.26 518.035 1757.19 518.342 1754.84 518.957C1752.48 519.571 1750.16 520.63 1747.87 522.132C1745.59 523.634 1743.55 525.785 1741.78 528.585C1740 531.384 1738.74 535.003 1737.99 539.441L1732.77 569.059H1730.72Z" fill="#E9FBFF"/>
<path d="M1786.28 570.288C1781.57 570.288 1777.58 569.212 1774.28 567.062C1771 564.911 1768.68 561.804 1767.32 557.741C1765.95 553.678 1765.75 548.847 1766.7 543.231C1767.45 539.066 1768.73 535.31 1770.54 531.965C1772.35 528.619 1774.59 525.785 1777.25 523.463C1779.91 521.142 1782.83 519.349 1786.01 518.086C1789.18 516.823 1792.51 516.191 1795.99 516.191C1800.71 516.191 1804.72 517.267 1808.05 519.418C1811.36 521.569 1813.73 524.675 1815.17 528.738C1816.6 532.801 1816.8 537.632 1815.78 543.248C1815.03 547.55 1813.73 551.357 1811.89 554.685C1810.04 557.997 1807.79 560.814 1805.13 563.135C1802.46 565.457 1799.53 567.232 1796.32 568.461C1793.11 569.69 1789.76 570.305 1786.28 570.305V570.288ZM1786.59 568.239C1790.48 568.239 1794.3 567.318 1798.08 565.474C1801.83 563.63 1805.11 560.848 1807.91 557.127C1810.71 553.405 1812.59 548.813 1813.54 543.334C1814.5 537.734 1814.26 533.091 1812.83 529.387C1811.39 525.7 1809.16 522.917 1806.12 521.039C1803.08 519.162 1799.68 518.223 1795.93 518.223C1791.97 518.223 1788.13 519.162 1784.39 521.039C1780.67 522.917 1777.42 525.7 1774.66 529.387C1771.89 533.074 1770 537.683 1768.97 543.231C1768.02 548.762 1768.24 553.405 1769.64 557.127C1771.04 560.848 1773.26 563.63 1776.3 565.474C1779.33 567.318 1782.77 568.239 1786.59 568.239Z" fill="#E9FBFF"/>
<path d="M1827.29 569.059L1840.31 495.263H1842.36L1829.33 569.059H1827.29Z" fill="#E9FBFF"/>
<path d="M336.439 102.972H643.163V188.086C643.163 190.271 640.244 190.783 639.407 188.752C624.283 152.204 582.221 141.364 537.735 140.408C534.014 140.322 530.958 143.378 530.958 147.099V428.217C530.958 442.727 537.974 455.888 548.763 463.963C550.897 465.567 549.907 468.879 547.244 468.879H432.359C429.696 468.879 428.706 465.567 430.84 463.963C441.628 455.888 448.627 442.727 448.627 428.217V147.099C448.627 143.378 445.571 140.322 441.85 140.408C397.313 141.364 355.524 152.255 340.195 189.042C339.359 191.056 336.439 190.544 336.439 188.359V102.972Z" fill="#E9FBFF"/>
<path d="M1080.29 230.318L1027.68 280.129C1026.14 281.58 1023.67 280.641 1023.32 278.542C1015.16 228.32 973.735 238.272 952.209 286.65C952.055 287.009 951.953 287.419 951.953 287.811V428.216C951.953 442.846 959.088 456.127 970.03 464.167C972.096 465.686 971.14 468.861 968.579 468.861H858.133C855.572 468.861 854.616 465.686 856.682 464.167C867.624 456.11 874.76 442.846 874.76 428.216V262.001C874.76 246.944 867.624 235.285 856.648 229.242C854.463 228.03 854.873 224.855 857.348 224.411L967.811 204.695C970.406 204.234 971.908 207.392 969.962 209.184C959.054 219.273 951.953 233.527 951.953 248.122V273.335C962.246 236.275 994.151 202.834 1026.06 202.834C1046.81 202.834 1066.62 210.908 1080.46 226.579C1081.42 227.655 1081.31 229.345 1080.27 230.335L1080.29 230.318Z" fill="#E9FBFF"/>
<path d="M1353.09 468.861H1254.68C1250.29 468.861 1248.33 463.603 1251.49 460.565C1259.97 452.439 1265.28 440.831 1265.28 428.216V283.612C1265.28 239.314 1207.86 225.743 1181.23 265.824C1180.68 266.661 1180.37 267.685 1180.37 268.675V428.216C1180.37 440.831 1185.68 452.456 1194.17 460.565C1197.34 463.603 1195.38 468.861 1190.97 468.861H1092.56C1088.17 468.861 1086.21 463.603 1089.37 460.565C1097.85 452.439 1103.16 440.831 1103.16 428.216V262.001C1103.16 248.976 1097.82 238.494 1089.28 231.99C1085.9 229.413 1087.03 224.172 1091.2 223.438L1189.52 205.89C1194.05 205.087 1196.88 210.362 1193.86 213.827C1185.54 223.421 1180.36 235.644 1180.36 248.122V255.326C1201.45 221.356 1235.94 202.834 1267.33 202.834C1307.46 202.834 1342.46 230.625 1342.46 290.32V428.233C1342.46 440.848 1347.77 452.473 1356.25 460.582C1359.42 463.621 1357.46 468.878 1353.06 468.878L1353.09 468.861Z" fill="#E9FBFF"/>
<path d="M1627.28 458.107C1614.99 466.864 1598.76 469.664 1580.78 468.674C1555.45 467.291 1535.49 446.397 1535.49 421.03C1535.49 419.784 1533.92 419.357 1533.24 420.398C1511.99 452.098 1478.82 468.861 1448.54 468.861C1408.9 468.861 1373.41 441.071 1373.41 381.375V256.828C1373.41 242.489 1366.56 231.069 1355.96 224.941C1353.57 223.558 1354.03 220.075 1356.75 219.597L1405.01 210.96C1428.77 206.709 1450.58 224.975 1450.58 249.112V388.067C1450.58 412.699 1468.34 427.824 1488.67 429.514C1514.34 431.648 1535.51 409.49 1535.51 383.714V256.828C1535.51 244.281 1530.25 233.971 1521.85 227.484C1518.41 224.821 1519.53 219.478 1523.82 218.71L1611.2 203.056C1611.99 202.92 1612.7 203.517 1612.7 204.302V412.751C1612.7 433.338 1617.18 446.823 1626.1 449.111C1630 450.101 1630.59 455.751 1627.32 458.09L1627.28 458.107Z" fill="#E9FBFF"/>
<path d="M834.61 457.987C822.319 466.745 806.085 469.544 788.11 468.554C762.777 467.171 742.822 446.277 742.822 420.91C742.822 419.664 741.251 419.237 740.569 420.279C719.316 451.979 686.148 468.742 655.865 468.742C616.227 468.742 580.737 440.951 580.737 381.255V256.709C580.737 242.369 573.892 230.949 563.291 224.821C560.901 223.438 561.362 219.956 564.076 219.478L612.335 210.84C636.097 206.59 657.913 224.855 657.913 248.993V387.947C657.913 412.58 675.666 427.704 695.997 429.394C721.671 431.528 742.839 409.371 742.839 383.594V256.709C742.839 244.162 737.581 233.851 729.182 227.364C725.734 224.701 726.861 219.358 731.146 218.59L818.53 202.937C819.315 202.8 820.032 203.397 820.032 204.183V412.631C820.032 433.218 824.504 446.704 833.432 448.991C837.324 449.981 837.922 455.632 834.644 457.97L834.61 457.987Z" fill="#E9FBFF"/>
<path d="M1841.21 365.943C1856.13 427.175 1806.72 468.861 1740.34 468.861C1703.62 468.861 1684.6 448.752 1659.75 466.71C1658.6 467.547 1656.98 466.847 1656.98 465.43V386.82C1656.98 385.045 1659.34 384.413 1660.22 385.967C1681.6 423.3 1701.67 460.616 1740.87 460.616C1768.66 460.616 1786.67 436.939 1776.39 411.214C1757.34 363.878 1660.6 373.642 1647.22 296.449C1637.44 236.241 1691.99 202.783 1745.51 202.783C1786.14 202.783 1803.94 222.79 1822.86 205.736C1824 204.712 1825.81 205.395 1825.81 206.931V284.073C1825.81 285.899 1823.42 286.514 1822.58 284.909C1806.43 253.704 1778.32 211.028 1747.06 211.028C1715.81 211.028 1698.68 233.663 1700.24 254.251C1703.84 307.255 1827.86 311.881 1841.24 365.926L1841.21 365.943Z" fill="#E9FBFF"/>
</svg>
